<svg id="shopping-bag" xmlns="http://www.w3.org/2000/svg" width="18.535" height="23.157" viewBox="0 0 18.535 23.157">
  <path id="Path_3646" data-name="Path 3646" d="M67.33,20.017,66,5.086A.638.638,0,0,0,65.37,4.5H62.642a4.575,4.575,0,0,0-9.149,0H50.765a.635.635,0,0,0-.635.582L48.8,20.017c0,.019,0,.038,0,.057a3.3,3.3,0,0,0,3.476,3.083H63.859a3.3,3.3,0,0,0,3.476-3.083A.231.231,0,0,0,67.33,20.017ZM58.067,1.279a3.3,3.3,0,0,1,3.3,3.225H54.772A3.3,3.3,0,0,1,58.067,1.279Zm5.792,20.6H52.276a2.04,2.04,0,0,1-2.2-1.776L51.348,5.787h2.14V7.728a.639.639,0,1,0,1.279,0V5.787h6.6V7.728a.639.639,0,1,0,1.279,0V5.787h2.14L66.056,20.1A2.043,2.043,0,0,1,63.859,21.878Z" transform="translate(-48.8)" fill="#927c4a"/>
</svg>
